<svg width="123" height="91" viewBox="0 0 123 91" fill="none" xmlns="http://www.w3.org/2000/svg">
<path d="M102.152 91H10.0088C10.0088 91 2.53941 87.1041 3.02152 85.8997C3.50363 84.6954 10.7316 88.3097 10.7316 88.3097C10.7316 88.3097 9.52727 85.4183 10.7316 85.1769C11.9366 84.9355 14.828 88.0683 16.5145 88.3097C18.201 88.5504 18.201 86.864 20.6109 87.3455C23.0203 87.827 25.4302 88.3097 25.4302 88.3097C28.8038 86.6226 36.2731 88.7912 36.996 88.7912C37.7188 88.7912 63.0183 89.0326 72.1748 89.5141C72.1748 89.5141 68.3191 87.5868 69.7648 86.864C71.2106 86.1411 78.1984 88.7912 78.1984 88.7912C78.1984 88.7912 78.9213 87.5868 80.6084 87.5868C82.2955 87.5868 86.1499 89.0326 86.1499 89.0326C86.1499 89.0326 86.3913 87.8276 87.837 88.0683C89.2827 88.3097 101.287 88.1488 102.152 91Z" fill="#D8AE58"/>
<path d="M76.2972 7.2447L66.5126 0V4.45785L72.2948 9.15644L76.2972 7.2447Z" fill="#5B3514"/>
<path d="M92.4694 52.335V30.4245C92.4694 30.2209 92.6346 30.055 92.8388 30.055H94.4003C94.6045 30.055 94.7704 30.2203 94.7704 30.4245V52.335C94.7704 52.5392 94.6045 52.7045 94.4003 52.7045H92.8388C92.6346 52.7045 92.4694 52.5392 92.4694 52.335Z" fill="#5B3514"/>
<path d="M80.2612 52.335V30.4245C80.2612 30.2209 80.427 30.055 80.6306 30.055H82.1927C82.3963 30.055 82.5622 30.2203 82.5622 30.4245V52.335C82.5622 52.5392 82.3963 52.7045 82.1927 52.7045H80.6306C80.4264 52.7045 80.2612 52.5392 80.2612 52.335Z" fill="#5B3514"/>
<path d="M83.7151 52.4155V27.8543C83.7151 27.65 83.8804 27.4848 84.0846 27.4848H85.6461C85.8503 27.4848 86.0162 27.65 86.0162 27.8543V52.4155C86.0162 52.6197 85.8503 52.7849 85.6461 52.7849H84.0846C83.8798 52.7843 83.7151 52.6197 83.7151 52.4155Z" fill="#5B3514"/>
<path d="M94.0537 34.5785H84.7531C84.5488 34.5785 84.3836 34.4132 84.3836 34.209V32.6469C84.3836 32.4433 84.5488 32.2775 84.7531 32.2775H94.0537C94.258 32.2775 94.4232 32.4433 94.4232 32.6469V34.209C94.4226 34.4132 94.258 34.5785 94.0537 34.5785Z" fill="#5B3514"/>
<path d="M76.2972 7.24469H72.069V39.3718H76.2972V7.24469Z" fill="#5B3514"/>
<path d="M108.305 69.8681C108.305 69.8681 108.305 43.1711 108.305 38.1909C108.305 33.2114 73.8216 34.2697 73.8216 34.2697C73.8216 34.2697 73.8216 16.9872 73.8216 10.8831C73.8216 4.77905 34.0451 5.10025 34.0451 8.9553C34.0451 12.8104 34.0451 69.8675 34.0451 69.8675H108.305V69.8681Z" fill="#FEBD33"/>
<path d="M54.8323 69.8681H99.9919C100.325 61.8009 99.8044 39.8143 99.8044 38.5128C99.8044 36.1028 73.7009 35.9425 73.7009 38.6737C73.7009 41.4042 73.7009 57.1468 73.7009 57.1468H66.0707L54.8323 69.8681Z" fill="#FAA334"/>
<path d="M71.3566 29.1558H42.1513C41.4996 29.1558 40.9717 28.6273 40.9717 27.9762V12.6253C40.9717 11.9736 41.5002 11.4457 42.1513 11.4457H71.3566C72.0083 11.4457 72.5362 11.9742 72.5362 12.6253V27.9762C72.5362 28.6273 72.0083 29.1558 71.3566 29.1558Z" fill="#FAA334"/>
<path d="M39.9493 87.7329C54.7128 87.7329 66.6809 75.7647 66.6809 61.0013C66.6809 46.2378 54.7128 34.2697 39.9493 34.2697C25.1859 34.2697 13.2177 46.2378 13.2177 61.0013C13.2177 75.7647 25.1859 87.7329 39.9493 87.7329Z" fill="#6E4320"/>
<path d="M46.9966 91H32.9026C31.91 91 31.0974 90.1874 31.0974 89.1947V32.8079C31.0974 31.8152 31.91 31.0032 32.9026 31.0032H46.9966C47.9893 31.0032 48.8012 31.8152 48.8012 32.8079V89.1947C48.8019 90.188 47.9893 91 46.9966 91Z" fill="#6E4320"/>
<path d="M23.7202 87.1969L13.7543 77.2304C13.0525 76.5285 13.0525 75.3799 13.7543 74.6775L53.6261 34.8056C54.3279 34.1038 55.4766 34.1038 56.1784 34.8056L66.145 44.7722C66.8468 45.474 66.8468 46.6227 66.145 47.3251L26.2731 87.1969C25.5707 87.8988 24.422 87.8988 23.7202 87.1969Z" fill="#6E4320"/>
<path d="M9.95117 68.0485V53.9546C9.95117 52.9619 10.7638 52.1493 11.7565 52.1493H68.1433C69.136 52.1493 69.9486 52.9619 69.9486 53.9546V68.0485C69.9486 69.0412 69.136 69.8538 68.1433 69.8538H11.7565C10.7632 69.8538 9.95117 69.0412 9.95117 68.0485Z" fill="#6E4320"/>
<path d="M13.7543 44.7722L23.7202 34.8056C24.4221 34.1038 25.5707 34.1038 26.2725 34.8056L66.1444 74.6775C66.8462 75.3799 66.8462 76.5285 66.1444 77.2304L56.1778 87.1969C55.476 87.8988 54.3273 87.8988 53.6255 87.1969L13.7537 47.3251C13.0525 46.6227 13.0525 45.474 13.7543 44.7722Z" fill="#6E4320"/>
<path d="M39.9493 85.6287C53.5506 85.6287 64.5767 74.6026 64.5767 61.0013C64.5767 47.3999 53.5506 36.3739 39.9493 36.3739C26.348 36.3739 15.3219 47.3999 15.3219 61.0013C15.3219 74.6026 26.348 85.6287 39.9493 85.6287Z" fill="#5B3514"/>
<path d="M39.9499 73.4025C46.799 73.4025 52.3512 67.8503 52.3512 61.0013C52.3512 54.1522 46.799 48.6 39.9499 48.6C33.1009 48.6 27.5486 54.1522 27.5486 61.0013C27.5486 67.8503 33.1009 73.4025 39.9499 73.4025Z" fill="#FEBD33"/>
<path d="M39.9493 70.6077C45.2547 70.6077 49.5556 66.3067 49.5556 61.0013C49.5556 55.6958 45.2547 51.3949 39.9493 51.3949C34.6438 51.3949 30.3429 55.6958 30.3429 61.0013C30.3429 66.3067 34.6438 70.6077 39.9493 70.6077Z" fill="#6E4320"/>
<path d="M39.9499 66.9055C43.2107 66.9055 45.8541 64.2621 45.8541 61.0013C45.8541 57.7405 43.2107 55.0971 39.9499 55.0971C36.6891 55.0971 34.0457 57.7405 34.0457 61.0013C34.0457 64.2621 36.6891 66.9055 39.9499 66.9055Z" fill="#5B3514"/>
<path d="M39.9493 64.5822C41.927 64.5822 43.5302 62.9789 43.5302 61.0013C43.5302 59.0236 41.927 57.4204 39.9493 57.4204C37.9716 57.4204 36.3684 59.0236 36.3684 61.0013C36.3684 62.9789 37.9716 64.5822 39.9493 64.5822Z" fill="#FEBD33"/>
<path d="M101.538 88.699C111.938 88.699 120.369 80.2681 120.369 69.8681C120.369 59.4681 111.938 51.0372 101.538 51.0372C91.1379 51.0372 82.707 59.4681 82.707 69.8681C82.707 80.2681 91.1379 88.699 101.538 88.699Z" fill="#6E4320"/>
<path d="M105.969 91H97.1079C96.1152 91 95.3032 90.1874 95.3032 89.1947V50.5402C95.3032 49.5475 96.1158 48.7355 97.1079 48.7355H105.969C106.962 48.7355 107.774 49.5481 107.774 50.5402V89.1947C107.774 90.188 106.962 91 105.969 91Z" fill="#6E4320"/>
<path d="M89.7283 87.9433L83.4621 81.6777C82.7603 80.9753 82.7603 79.8272 83.4621 79.1248L110.795 51.7922C111.497 51.0904 112.646 51.0904 113.348 51.7922L119.614 58.0579C120.316 58.7603 120.316 59.9089 119.614 60.6108L92.2812 87.9433C91.5794 88.6458 90.4302 88.6458 89.7283 87.9433Z" fill="#6E4320"/>
<path d="M80.406 74.2987V65.4375C80.406 64.4442 81.2186 63.6322 82.2113 63.6322H120.865C121.858 63.6322 122.67 64.4448 122.67 65.4375V74.2987C122.67 75.2914 121.858 76.1034 120.865 76.1034H82.2113C81.218 76.1034 80.406 75.2914 80.406 74.2987Z" fill="#6E4320"/>
<path d="M83.4621 58.0579L89.7283 51.7922C90.4301 51.0904 91.5788 51.0904 92.2812 51.7922L119.614 79.1248C120.316 79.8272 120.316 80.9753 119.614 81.6777L113.348 87.9433C112.646 88.6458 111.497 88.6458 110.795 87.9433L83.4621 60.6108C82.7609 59.9089 82.7609 58.7603 83.4621 58.0579Z" fill="#6E4320"/>
<path d="M101.538 87.2167C111.119 87.2167 118.887 79.4495 118.887 69.8681C118.887 60.2867 111.119 52.5194 101.538 52.5194C91.9565 52.5194 84.1893 60.2867 84.1893 69.8681C84.1893 79.4495 91.9565 87.2167 101.538 87.2167Z" fill="#5B3514"/>
<path d="M101.538 78.6037C106.362 78.6037 110.274 74.6926 110.274 69.8681C110.274 65.0436 106.362 61.1325 101.538 61.1325C96.7134 61.1325 92.8023 65.0436 92.8023 69.8681C92.8023 74.6926 96.7134 78.6037 101.538 78.6037Z" fill="#FEBD33"/>
<path d="M101.538 76.6356C105.276 76.6356 108.305 73.6057 108.305 69.8681C108.305 66.1305 105.276 63.1006 101.538 63.1006C97.8003 63.1006 94.7704 66.1305 94.7704 69.8681C94.7704 73.6057 97.8003 76.6356 101.538 76.6356Z" fill="#6E4320"/>
<path d="M101.539 74.027C103.835 74.027 105.697 72.165 105.697 69.8681C105.697 67.5712 103.835 65.7092 101.539 65.7092C99.2416 65.7092 97.3796 67.5712 97.3796 69.8681C97.3796 72.165 99.2416 74.027 101.539 74.027Z" fill="#5B3514"/>
<path d="M101.539 72.3907C102.932 72.3907 104.061 71.2613 104.061 69.8681C104.061 68.4749 102.932 67.3455 101.539 67.3455C100.145 67.3455 99.0159 68.4749 99.0159 69.8681C99.0159 71.2613 100.145 72.3907 101.539 72.3907Z" fill="#FEBD33"/>
<path d="M59.5847 13.3729H46.4532C44.4238 13.3729 42.7782 15.0179 42.7782 17.0479V24.1558C42.7782 26.1851 44.4238 27.8301 46.4532 27.8301H59.5847C61.614 27.8301 63.2597 26.1851 63.2597 24.1558V17.0479C63.2597 15.0185 61.6147 13.3729 59.5847 13.3729Z" fill="#C1E8FB"/>
<path d="M69.034 13.3729H67.0052C65.9451 13.3729 65.0854 14.2319 65.0854 15.2921V25.911C65.0854 26.9711 65.9451 27.8301 67.0052 27.8301H69.034C70.0941 27.8301 70.9537 26.9711 70.9537 25.911V15.2921C70.9531 14.2326 70.0941 13.3729 69.034 13.3729Z" fill="#C1E8FB"/>
<path d="M47.1891 13.3729L42.7789 17.9935V20.0464L48.8341 13.3729H47.1891Z" fill="white"/>
<path d="M50.1034 13.3729L42.7789 21.5874V24.1558C42.7789 24.2307 42.7968 24.3 42.8011 24.3737L52.5944 13.3729H50.1034Z" fill="white"/>
<path d="M67.3482 13.3729L65.0856 15.7439V17.6798L68.9932 13.3729H67.3482Z" fill="white"/>
<path d="M70.9531 15.2921C70.9531 14.5915 70.5583 14.0048 69.9976 13.67L65.0848 19.1787V21.9866L70.9525 15.3955V15.2921H70.9531Z" fill="white"/>
<path d="M97.1859 41.4061H75.2748C75.0712 41.4061 74.9053 41.2402 74.9053 41.036V39.4745C74.9053 39.2703 75.0706 39.105 75.2748 39.105H97.1859C97.3895 39.105 97.5554 39.2703 97.5554 39.4745V41.036C97.5554 41.2402 97.3895 41.4061 97.1859 41.4061Z" fill="#5B3514"/>
<path d="M97.1859 45.3496H75.2748C75.0712 45.3496 74.9053 45.1844 74.9053 44.9801V43.4187C74.9053 43.2144 75.0706 43.0492 75.2748 43.0492H97.1859C97.3895 43.0492 97.5554 43.2144 97.5554 43.4187V44.9801C97.5554 45.1844 97.3895 45.3496 97.1859 45.3496Z" fill="#5B3514"/>
<path d="M97.1859 49.2653H75.2748C75.0712 49.2653 74.9053 49.0995 74.9053 48.8958V47.3338C74.9053 47.1302 75.0706 46.9643 75.2748 46.9643H97.1859C97.3895 46.9643 97.5554 47.1302 97.5554 47.3338V48.8958C97.5554 49.0995 97.3895 49.2653 97.1859 49.2653Z" fill="#5B3514"/>
<path d="M67.5165 40.44C68.8915 40.44 70.0062 39.3253 70.0062 37.9502C70.0062 36.5751 68.8915 35.4604 67.5165 35.4604C66.1414 35.4604 65.0267 36.5751 65.0267 37.9502C65.0267 39.3253 66.1414 40.44 67.5165 40.44Z" fill="#FAA334"/>
<path d="M67.5164 39.4764C68.3593 39.4764 69.0426 38.7931 69.0426 37.9502C69.0426 37.1073 68.3593 36.424 67.5164 36.424C66.6735 36.424 65.9902 37.1073 65.9902 37.9502C65.9902 38.7931 66.6735 39.4764 67.5164 39.4764Z" fill="#5B3514"/>
<path d="M8.08153 84.454C8.08153 84.454 -2.03852 82.1654 0.370807 78.5504C2.78076 74.9361 8.08153 84.454 8.08153 84.454Z" fill="#D8AE58"/>
<path d="M15.6716 85.2976C15.6716 85.2976 9.04578 83.3704 10.4909 81.2018C11.9366 79.0332 15.6716 85.2976 15.6716 85.2976Z" fill="#D8AE58"/>
<path d="M83.7412 86.6226C83.3797 86.7427 80.3676 79.8761 77.9576 82.2854C75.5483 84.6954 83.7412 86.6226 83.7412 86.6226Z" fill="#D8AE58"/>
<path d="M76.1505 85.659C76.1505 85.659 70.1269 79.1533 68.199 81.3218C66.2718 83.4904 76.1505 85.659 76.1505 85.659Z" fill="#D8AE58"/>
<path d="M67.4762 87.7069C67.4762 87.7069 64.1026 83.0083 62.7776 84.454C61.4526 85.8997 67.4762 87.7069 67.4762 87.7069Z" fill="#D8AE58"/>
</svg>
